<svg width="16" height="16" viewBox="0 0 16 16" fill="none" xmlns="http://www.w3.org/2000/svg">
<path d="M2.83749 11.0625C2.09304 9.80655 1.83264 8.32202 2.10518 6.88764C2.37771 5.45326 3.16444 4.16768 4.31766 3.27225C5.47088 2.37682 6.91129 1.93312 8.36847 2.02444C9.82566 2.11576 11.1994 2.73583 12.2318 3.76823C13.2642 4.80064 13.8843 6.17438 13.9756 7.63156C14.0669 9.08874 13.6232 10.5292 12.7278 11.6824C11.8323 12.8356 10.5468 13.6223 9.11239 13.8949C7.67801 14.1674 6.19348 13.907 4.93749 13.1625V13.1625L2.86249 13.75C2.77747 13.7749 2.68733 13.7764 2.60152 13.7545C2.51571 13.7325 2.43738 13.6879 2.37475 13.6253C2.31212 13.5627 2.26749 13.4843 2.24553 13.3985C2.22358 13.3127 2.22512 13.2226 2.24999 13.1375L2.83749 11.0625Z" stroke="#39B74E" stroke-linecap="round" stroke-linejoin="round"/>
<path d="M9.55979 9.741C9.70645 9.741 9.82745 9.78867 9.92279 9.884C10.0255 9.97933 10.0768 10.1003 10.0768 10.247C10.0768 10.3863 10.0255 10.5073 9.92279 10.61C9.82745 10.7053 9.70645 10.753 9.55979 10.753H6.00679C5.85279 10.753 5.72812 10.698 5.63279 10.588C5.53745 10.4707 5.49345 10.357 5.50079 10.247C5.50812 10.159 5.51912 10.082 5.53379 10.016C5.55579 9.94267 5.60345 9.862 5.67679 9.774L8.61379 5.88V6.012H6.16079C6.01412 6.012 5.88945 5.96433 5.78679 5.869C5.69145 5.76633 5.64379 5.64533 5.64379 5.506C5.64379 5.35933 5.69145 5.23833 5.78679 5.143C5.88945 5.04767 6.01412 5 6.16079 5H9.54879C9.68812 5 9.80545 5.055 9.90079 5.165C10.0035 5.26767 10.0475 5.396 10.0328 5.55C10.0328 5.616 10.0218 5.682 9.99979 5.748C9.98512 5.80667 9.94479 5.87633 9.87879 5.957L6.98579 9.807L6.94179 9.741H9.55979Z" fill="#39B74E"/>
</svg>
